<mxfile host="app.diagrams.net" modified="2023-09-18T11:04:55.764Z" agent="Mozilla/5.0 (Macintosh; Intel Mac OS X 10_15_7) AppleWebKit/537.36 (KHTML, like Gecko) Chrome/116.0.0.0 Safari/537.36" etag="g4r8kQY0VRlP7GmM9hlw" version="21.7.5" type="github">
  <diagram id="gHdGT0hqlNenqPQnGmaF" name="第 1 页">
    <mxGraphModel dx="3060" dy="807" grid="1" gridSize="10" guides="1" tooltips="1" connect="1" arrows="1" fold="1" page="1" pageScale="1" pageWidth="827" pageHeight="1169" math="0" shadow="0">
      <root>
        <mxCell id="0" />
        <mxCell id="1" parent="0" />
        <mxCell id="UIsmuP5mog6YXnoimDV5-1" value="歌曲" style="rounded=1;whiteSpace=wrap;html=1;fontSize=20;fillColor=#d5e8d4;strokeColor=#82b366;" parent="1" vertex="1">
          <mxGeometry x="190" y="850" width="90" height="50" as="geometry" />
        </mxCell>
        <mxCell id="UIsmuP5mog6YXnoimDV5-3" value="&amp;nbsp; &amp;nbsp; &amp;nbsp;音乐类思路" style="text;html=1;strokeColor=#6c8ebf;fillColor=#dae8fc;align=center;verticalAlign=middle;whiteSpace=wrap;rounded=0;fontSize=27;" parent="1" vertex="1">
          <mxGeometry x="50" y="770" width="680" height="60" as="geometry" />
        </mxCell>
        <mxCell id="UIsmuP5mog6YXnoimDV5-4" value="爬虫" style="rounded=1;whiteSpace=wrap;html=1;fontSize=20;fillColor=#e1d5e7;strokeColor=#9673a6;" parent="1" vertex="1">
          <mxGeometry x="80" y="850" width="90" height="50" as="geometry" />
        </mxCell>
        <mxCell id="UIsmuP5mog6YXnoimDV5-5" value="数据层" style="rounded=1;whiteSpace=wrap;html=1;fontSize=20;fillColor=#e1d5e7;strokeColor=#9673a6;" parent="1" vertex="1">
          <mxGeometry x="60" y="1180" width="250" height="30" as="geometry" />
        </mxCell>
        <mxCell id="UIsmuP5mog6YXnoimDV5-6" value="系统层（可视化）" style="rounded=1;whiteSpace=wrap;html=1;fontSize=20;fillColor=#e1d5e7;strokeColor=#9673a6;" parent="1" vertex="1">
          <mxGeometry x="330" y="1180" width="170" height="30" as="geometry" />
        </mxCell>
        <mxCell id="UIsmuP5mog6YXnoimDV5-7" value="算法层（亮点）" style="rounded=1;whiteSpace=wrap;html=1;fontSize=20;fillColor=#e1d5e7;strokeColor=#9673a6;" parent="1" vertex="1">
          <mxGeometry x="520" y="1180" width="200" height="30" as="geometry" />
        </mxCell>
        <mxCell id="UIsmuP5mog6YXnoimDV5-8" value="" style="endArrow=none;dashed=1;html=1;dashPattern=1 3;strokeWidth=2;rounded=0;fontSize=20;" parent="1" edge="1">
          <mxGeometry width="50" height="50" relative="1" as="geometry">
            <mxPoint x="320" y="1270" as="sourcePoint" />
            <mxPoint x="320" y="840" as="targetPoint" />
          </mxGeometry>
        </mxCell>
        <mxCell id="UIsmuP5mog6YXnoimDV5-9" value="" style="endArrow=none;dashed=1;html=1;dashPattern=1 3;strokeWidth=2;rounded=0;fontSize=20;" parent="1" edge="1">
          <mxGeometry width="50" height="50" relative="1" as="geometry">
            <mxPoint x="510" y="1270" as="sourcePoint" />
            <mxPoint x="510" y="840" as="targetPoint" />
          </mxGeometry>
        </mxCell>
        <mxCell id="6_AVYcbNs08KcEML1Ji8-1" value="功能模块图" style="text;html=1;strokeColor=#6c8ebf;fillColor=#dae8fc;align=center;verticalAlign=middle;whiteSpace=wrap;rounded=0;fontSize=27;" parent="1" vertex="1">
          <mxGeometry y="10" width="680" height="60" as="geometry" />
        </mxCell>
        <mxCell id="wtcgkGCjL-V0qk2THGTA-8" value="" style="edgeStyle=orthogonalEdgeStyle;rounded=0;orthogonalLoop=1;jettySize=auto;html=1;" parent="1" target="wtcgkGCjL-V0qk2THGTA-3" edge="1">
          <mxGeometry relative="1" as="geometry">
            <mxPoint x="590" y="295" as="sourcePoint" />
            <Array as="points">
              <mxPoint x="590" y="145" />
            </Array>
          </mxGeometry>
        </mxCell>
        <mxCell id="wtcgkGCjL-V0qk2THGTA-10" style="edgeStyle=orthogonalEdgeStyle;rounded=0;orthogonalLoop=1;jettySize=auto;html=1;exitX=1;exitY=0.5;exitDx=0;exitDy=0;entryX=0;entryY=0.5;entryDx=0;entryDy=0;" parent="1" source="6_AVYcbNs08KcEML1Ji8-2" target="6_AVYcbNs08KcEML1Ji8-4" edge="1">
          <mxGeometry relative="1" as="geometry" />
        </mxCell>
        <mxCell id="wtcgkGCjL-V0qk2THGTA-11" style="edgeStyle=orthogonalEdgeStyle;rounded=0;orthogonalLoop=1;jettySize=auto;html=1;exitX=1;exitY=0.5;exitDx=0;exitDy=0;entryX=0;entryY=0.5;entryDx=0;entryDy=0;" parent="1" source="6_AVYcbNs08KcEML1Ji8-2" target="6_AVYcbNs08KcEML1Ji8-8" edge="1">
          <mxGeometry relative="1" as="geometry" />
        </mxCell>
        <mxCell id="wtcgkGCjL-V0qk2THGTA-12" style="edgeStyle=orthogonalEdgeStyle;rounded=0;orthogonalLoop=1;jettySize=auto;html=1;exitX=1;exitY=0.5;exitDx=0;exitDy=0;entryX=0;entryY=0.5;entryDx=0;entryDy=0;" parent="1" source="6_AVYcbNs08KcEML1Ji8-2" target="6_AVYcbNs08KcEML1Ji8-9" edge="1">
          <mxGeometry relative="1" as="geometry" />
        </mxCell>
        <mxCell id="wtcgkGCjL-V0qk2THGTA-13" style="edgeStyle=orthogonalEdgeStyle;rounded=0;orthogonalLoop=1;jettySize=auto;html=1;exitX=1;exitY=0.5;exitDx=0;exitDy=0;entryX=0;entryY=0.5;entryDx=0;entryDy=0;" parent="1" source="6_AVYcbNs08KcEML1Ji8-2" target="wtcgkGCjL-V0qk2THGTA-2" edge="1">
          <mxGeometry relative="1" as="geometry" />
        </mxCell>
        <mxCell id="jG9ODHnWhC-1K8Zq-rV6-2" style="edgeStyle=orthogonalEdgeStyle;rounded=0;orthogonalLoop=1;jettySize=auto;html=1;exitX=1;exitY=0.5;exitDx=0;exitDy=0;entryX=0;entryY=0.5;entryDx=0;entryDy=0;" parent="1" source="6_AVYcbNs08KcEML1Ji8-2" target="jG9ODHnWhC-1K8Zq-rV6-1" edge="1">
          <mxGeometry relative="1" as="geometry" />
        </mxCell>
        <mxCell id="6_AVYcbNs08KcEML1Ji8-2" value="（1）网站端" style="rounded=1;whiteSpace=wrap;html=1;fontSize=14;fillColor=#dae8fc;strokeColor=#6c8ebf;" parent="1" vertex="1">
          <mxGeometry x="440" y="270" width="120" height="50" as="geometry" />
        </mxCell>
        <mxCell id="wtcgkGCjL-V0qk2THGTA-17" style="edgeStyle=orthogonalEdgeStyle;rounded=0;orthogonalLoop=1;jettySize=auto;html=1;exitX=1;exitY=0.5;exitDx=0;exitDy=0;entryX=0;entryY=0.5;entryDx=0;entryDy=0;" parent="1" source="6_AVYcbNs08KcEML1Ji8-4" target="wtcgkGCjL-V0qk2THGTA-4" edge="1">
          <mxGeometry relative="1" as="geometry" />
        </mxCell>
        <mxCell id="wtcgkGCjL-V0qk2THGTA-18" style="edgeStyle=orthogonalEdgeStyle;rounded=0;orthogonalLoop=1;jettySize=auto;html=1;exitX=1;exitY=0.5;exitDx=0;exitDy=0;entryX=0;entryY=0.5;entryDx=0;entryDy=0;" parent="1" source="6_AVYcbNs08KcEML1Ji8-4" target="wtcgkGCjL-V0qk2THGTA-5" edge="1">
          <mxGeometry relative="1" as="geometry" />
        </mxCell>
        <mxCell id="6_AVYcbNs08KcEML1Ji8-4" value="数据可视化" style="rounded=1;whiteSpace=wrap;html=1;fontSize=14;fillColor=#d5e8d4;strokeColor=#82b366;" parent="1" vertex="1">
          <mxGeometry x="620" y="180" width="120" height="30" as="geometry" />
        </mxCell>
        <mxCell id="wtcgkGCjL-V0qk2THGTA-16" style="edgeStyle=orthogonalEdgeStyle;rounded=0;orthogonalLoop=1;jettySize=auto;html=1;exitX=1;exitY=0.5;exitDx=0;exitDy=0;entryX=0;entryY=0.5;entryDx=0;entryDy=0;" parent="1" source="6_AVYcbNs08KcEML1Ji8-8" target="wtcgkGCjL-V0qk2THGTA-15" edge="1">
          <mxGeometry relative="1" as="geometry" />
        </mxCell>
        <mxCell id="6_AVYcbNs08KcEML1Ji8-8" value="音乐推荐" style="rounded=1;whiteSpace=wrap;html=1;fontSize=14;fillColor=#e1d5e7;strokeColor=#9673a6;" parent="1" vertex="1">
          <mxGeometry x="620" y="240" width="120" height="30" as="geometry" />
        </mxCell>
        <mxCell id="wtcgkGCjL-V0qk2THGTA-14" style="edgeStyle=orthogonalEdgeStyle;rounded=0;orthogonalLoop=1;jettySize=auto;html=1;exitX=1;exitY=0.5;exitDx=0;exitDy=0;entryX=0;entryY=0.5;entryDx=0;entryDy=0;" parent="1" source="6_AVYcbNs08KcEML1Ji8-9" target="wtcgkGCjL-V0qk2THGTA-6" edge="1">
          <mxGeometry relative="1" as="geometry" />
        </mxCell>
        <mxCell id="6_AVYcbNs08KcEML1Ji8-9" value="数据查询" style="rounded=1;whiteSpace=wrap;html=1;fontSize=14;fillColor=#d5e8d4;strokeColor=#82b366;" parent="1" vertex="1">
          <mxGeometry x="620" y="340" width="120" height="30" as="geometry" />
        </mxCell>
        <mxCell id="wtcgkGCjL-V0qk2THGTA-2" value="浏览历史记录" style="rounded=1;whiteSpace=wrap;html=1;fontSize=14;fillColor=#d5e8d4;strokeColor=#82b366;" parent="1" vertex="1">
          <mxGeometry x="620" y="390" width="120" height="30" as="geometry" />
        </mxCell>
        <mxCell id="wtcgkGCjL-V0qk2THGTA-3" value="登录与注册" style="rounded=1;whiteSpace=wrap;html=1;fontSize=14;fillColor=#fff2cc;strokeColor=#d6b656;" parent="1" vertex="1">
          <mxGeometry x="620" y="130" width="120" height="30" as="geometry" />
        </mxCell>
        <mxCell id="wtcgkGCjL-V0qk2THGTA-4" value="Echarts可视化" style="rounded=1;whiteSpace=wrap;html=1;fontSize=14;fillColor=#d5e8d4;strokeColor=#82b366;" parent="1" vertex="1">
          <mxGeometry x="780" y="150" width="120" height="30" as="geometry" />
        </mxCell>
        <mxCell id="wtcgkGCjL-V0qk2THGTA-5" value="词云" style="rounded=1;whiteSpace=wrap;html=1;fontSize=14;fillColor=#d5e8d4;strokeColor=#82b366;" parent="1" vertex="1">
          <mxGeometry x="780" y="200" width="120" height="30" as="geometry" />
        </mxCell>
        <mxCell id="wtcgkGCjL-V0qk2THGTA-6" value="分页/模糊查询" style="rounded=1;whiteSpace=wrap;html=1;fontSize=14;fillColor=#d5e8d4;strokeColor=#82b366;" parent="1" vertex="1">
          <mxGeometry x="780" y="340" width="120" height="30" as="geometry" />
        </mxCell>
        <mxCell id="wtcgkGCjL-V0qk2THGTA-15" value="双协同过滤推荐算法" style="rounded=1;whiteSpace=wrap;html=1;fontSize=14;fillColor=#e1d5e7;strokeColor=#9673a6;" parent="1" vertex="1">
          <mxGeometry x="780" y="240" width="150" height="30" as="geometry" />
        </mxCell>
        <mxCell id="U2U8d9sQ9sILnOG547oe-28" style="edgeStyle=orthogonalEdgeStyle;rounded=0;orthogonalLoop=1;jettySize=auto;html=1;exitX=1;exitY=0.5;exitDx=0;exitDy=0;entryX=0;entryY=0.5;entryDx=0;entryDy=0;" parent="1" source="wtcgkGCjL-V0qk2THGTA-19" target="U2U8d9sQ9sILnOG547oe-27" edge="1">
          <mxGeometry relative="1" as="geometry" />
        </mxCell>
        <mxCell id="wtcgkGCjL-V0qk2THGTA-19" value="（4）爬虫" style="rounded=1;whiteSpace=wrap;html=1;fontSize=14;fillColor=#f5f5f5;strokeColor=#666666;fontColor=#333333;" parent="1" vertex="1">
          <mxGeometry x="440" y="450" width="120" height="50" as="geometry" />
        </mxCell>
        <mxCell id="wtcgkGCjL-V0qk2THGTA-20" value="MV" style="rounded=1;whiteSpace=wrap;html=1;fontSize=20;fillColor=#d5e8d4;strokeColor=#82b366;" parent="1" vertex="1">
          <mxGeometry x="80" y="930" width="90" height="50" as="geometry" />
        </mxCell>
        <mxCell id="wtcgkGCjL-V0qk2THGTA-21" value="音乐人" style="rounded=1;whiteSpace=wrap;html=1;fontSize=20;fillColor=#d5e8d4;strokeColor=#82b366;" parent="1" vertex="1">
          <mxGeometry x="190" y="930" width="90" height="50" as="geometry" />
        </mxCell>
        <mxCell id="wtcgkGCjL-V0qk2THGTA-22" value="专辑" style="rounded=1;whiteSpace=wrap;html=1;fontSize=20;fillColor=#d5e8d4;strokeColor=#82b366;" parent="1" vertex="1">
          <mxGeometry x="80" y="1010" width="90" height="50" as="geometry" />
        </mxCell>
        <mxCell id="wtcgkGCjL-V0qk2THGTA-23" value="评论" style="rounded=1;whiteSpace=wrap;html=1;fontSize=20;fillColor=#d5e8d4;strokeColor=#82b366;" parent="1" vertex="1">
          <mxGeometry x="190" y="1010" width="90" height="50" as="geometry" />
        </mxCell>
        <mxCell id="wtcgkGCjL-V0qk2THGTA-24" value="歌词" style="rounded=1;whiteSpace=wrap;html=1;fontSize=20;fillColor=#d5e8d4;strokeColor=#82b366;" parent="1" vertex="1">
          <mxGeometry x="80" y="1090" width="90" height="50" as="geometry" />
        </mxCell>
        <mxCell id="wtcgkGCjL-V0qk2THGTA-25" value="歌单" style="rounded=1;whiteSpace=wrap;html=1;fontSize=20;fillColor=#d5e8d4;strokeColor=#82b366;" parent="1" vertex="1">
          <mxGeometry x="190" y="1090" width="90" height="50" as="geometry" />
        </mxCell>
        <mxCell id="wtcgkGCjL-V0qk2THGTA-26" value="词云(分词)" style="rounded=1;whiteSpace=wrap;html=1;fontSize=20;fillColor=#fff2cc;strokeColor=#d6b656;" parent="1" vertex="1">
          <mxGeometry x="344" y="1010" width="140" height="50" as="geometry" />
        </mxCell>
        <mxCell id="wtcgkGCjL-V0qk2THGTA-27" value="D3.js (图谱)" style="rounded=1;whiteSpace=wrap;html=1;fontSize=20;fillColor=#fff2cc;strokeColor=#d6b656;" parent="1" vertex="1">
          <mxGeometry x="344" y="1090" width="140" height="50" as="geometry" />
        </mxCell>
        <mxCell id="wtcgkGCjL-V0qk2THGTA-28" value="高级图形" style="rounded=1;whiteSpace=wrap;html=1;fontSize=20;fillColor=#fff2cc;strokeColor=#d6b656;" parent="1" vertex="1">
          <mxGeometry x="345" y="930" width="140" height="50" as="geometry" />
        </mxCell>
        <mxCell id="wtcgkGCjL-V0qk2THGTA-30" value="传统图形" style="rounded=1;whiteSpace=wrap;html=1;fontSize=20;fillColor=#fff2cc;strokeColor=#d6b656;" parent="1" vertex="1">
          <mxGeometry x="345" y="850" width="140" height="50" as="geometry" />
        </mxCell>
        <mxCell id="wtcgkGCjL-V0qk2THGTA-35" style="edgeStyle=orthogonalEdgeStyle;rounded=0;orthogonalLoop=1;jettySize=auto;html=1;exitX=0.5;exitY=1;exitDx=0;exitDy=0;entryX=0.5;entryY=0;entryDx=0;entryDy=0;" parent="1" source="wtcgkGCjL-V0qk2THGTA-31" target="wtcgkGCjL-V0qk2THGTA-32" edge="1">
          <mxGeometry relative="1" as="geometry" />
        </mxCell>
        <mxCell id="wtcgkGCjL-V0qk2THGTA-31" value="KNN、userCF、itemCF协同过滤" style="rounded=1;whiteSpace=wrap;html=1;fontSize=20;fillColor=#f8cecc;strokeColor=#b85450;" parent="1" vertex="1">
          <mxGeometry x="530" y="850" width="180" height="50" as="geometry" />
        </mxCell>
        <mxCell id="wtcgkGCjL-V0qk2THGTA-36" style="edgeStyle=orthogonalEdgeStyle;rounded=0;orthogonalLoop=1;jettySize=auto;html=1;exitX=0.5;exitY=1;exitDx=0;exitDy=0;entryX=0.5;entryY=0;entryDx=0;entryDy=0;" parent="1" source="wtcgkGCjL-V0qk2THGTA-32" target="wtcgkGCjL-V0qk2THGTA-33" edge="1">
          <mxGeometry relative="1" as="geometry" />
        </mxCell>
        <mxCell id="wtcgkGCjL-V0qk2THGTA-32" value="SVD、ALS等" style="rounded=1;whiteSpace=wrap;html=1;fontSize=20;fillColor=#f8cecc;strokeColor=#b85450;" parent="1" vertex="1">
          <mxGeometry x="530" y="930" width="180" height="50" as="geometry" />
        </mxCell>
        <mxCell id="wtcgkGCjL-V0qk2THGTA-39" style="edgeStyle=orthogonalEdgeStyle;rounded=0;orthogonalLoop=1;jettySize=auto;html=1;exitX=0.5;exitY=1;exitDx=0;exitDy=0;entryX=0.5;entryY=0;entryDx=0;entryDy=0;" parent="1" source="wtcgkGCjL-V0qk2THGTA-33" target="wtcgkGCjL-V0qk2THGTA-38" edge="1">
          <mxGeometry relative="1" as="geometry" />
        </mxCell>
        <mxCell id="wtcgkGCjL-V0qk2THGTA-33" value="CNN/RNN/LSTM" style="rounded=1;whiteSpace=wrap;html=1;fontSize=20;fillColor=#d5e8d4;strokeColor=#82b366;gradientColor=#97d077;" parent="1" vertex="1">
          <mxGeometry x="530" y="1010" width="180" height="50" as="geometry" />
        </mxCell>
        <mxCell id="wtcgkGCjL-V0qk2THGTA-37" value="深度神经网络" style="rounded=1;whiteSpace=wrap;html=1;fontSize=20;fillColor=#d5e8d4;gradientColor=#97d077;strokeColor=#82b366;" parent="1" vertex="1">
          <mxGeometry x="730" y="1010" width="40" height="159" as="geometry" />
        </mxCell>
        <mxCell id="wtcgkGCjL-V0qk2THGTA-38" value="GAN/Transformer等" style="rounded=1;whiteSpace=wrap;html=1;fontSize=20;fillColor=#d5e8d4;strokeColor=#82b366;gradientColor=#97d077;" parent="1" vertex="1">
          <mxGeometry x="530" y="1090" width="180" height="50" as="geometry" />
        </mxCell>
        <mxCell id="jG9ODHnWhC-1K8Zq-rV6-1" value="歌曲/MV播放" style="rounded=1;whiteSpace=wrap;html=1;fontSize=14;fillColor=#d5e8d4;strokeColor=#82b366;" parent="1" vertex="1">
          <mxGeometry x="620" y="290" width="120" height="30" as="geometry" />
        </mxCell>
        <mxCell id="IFDbjYEKfMzznov-QCEN-1" value="功能模块图" style="text;html=1;strokeColor=#6c8ebf;fillColor=#dae8fc;align=center;verticalAlign=middle;whiteSpace=wrap;rounded=0;fontSize=27;" parent="1" vertex="1">
          <mxGeometry x="60" y="1310" width="680" height="60" as="geometry" />
        </mxCell>
        <mxCell id="IFDbjYEKfMzznov-QCEN-2" style="edgeStyle=orthogonalEdgeStyle;rounded=0;orthogonalLoop=1;jettySize=auto;html=1;exitX=0.5;exitY=1;exitDx=0;exitDy=0;" parent="1" source="wtcgkGCjL-V0qk2THGTA-6" target="wtcgkGCjL-V0qk2THGTA-6" edge="1">
          <mxGeometry relative="1" as="geometry" />
        </mxCell>
        <mxCell id="IFDbjYEKfMzznov-QCEN-6" style="edgeStyle=orthogonalEdgeStyle;rounded=0;orthogonalLoop=1;jettySize=auto;html=1;exitX=0;exitY=0.5;exitDx=0;exitDy=0;entryX=1;entryY=0.5;entryDx=0;entryDy=0;fontSize=17;" parent="1" source="IFDbjYEKfMzznov-QCEN-3" target="IFDbjYEKfMzznov-QCEN-4" edge="1">
          <mxGeometry relative="1" as="geometry" />
        </mxCell>
        <mxCell id="IFDbjYEKfMzznov-QCEN-7" style="edgeStyle=orthogonalEdgeStyle;rounded=0;orthogonalLoop=1;jettySize=auto;html=1;exitX=1;exitY=0.5;exitDx=0;exitDy=0;entryX=0;entryY=0.5;entryDx=0;entryDy=0;fontSize=17;" parent="1" source="IFDbjYEKfMzznov-QCEN-3" target="6_AVYcbNs08KcEML1Ji8-2" edge="1">
          <mxGeometry relative="1" as="geometry" />
        </mxCell>
        <mxCell id="IFDbjYEKfMzznov-QCEN-8" style="edgeStyle=orthogonalEdgeStyle;rounded=0;orthogonalLoop=1;jettySize=auto;html=1;exitX=1;exitY=0.5;exitDx=0;exitDy=0;entryX=0;entryY=0.5;entryDx=0;entryDy=0;fontSize=17;" parent="1" source="IFDbjYEKfMzznov-QCEN-3" target="wtcgkGCjL-V0qk2THGTA-19" edge="1">
          <mxGeometry relative="1" as="geometry" />
        </mxCell>
        <mxCell id="IFDbjYEKfMzznov-QCEN-9" style="edgeStyle=orthogonalEdgeStyle;rounded=0;orthogonalLoop=1;jettySize=auto;html=1;exitX=0;exitY=0.5;exitDx=0;exitDy=0;entryX=1;entryY=0.5;entryDx=0;entryDy=0;fontSize=17;" parent="1" source="IFDbjYEKfMzznov-QCEN-3" target="IFDbjYEKfMzznov-QCEN-5" edge="1">
          <mxGeometry relative="1" as="geometry" />
        </mxCell>
        <mxCell id="IFDbjYEKfMzznov-QCEN-3" value="Spark音乐&lt;br&gt;大数据平台" style="rounded=1;whiteSpace=wrap;html=1;fontSize=17;fillColor=#60a917;strokeColor=#2D7600;fontColor=#ffffff;" parent="1" vertex="1">
          <mxGeometry x="280" y="350" width="120" height="60" as="geometry" />
        </mxCell>
        <mxCell id="U2U8d9sQ9sILnOG547oe-15" style="edgeStyle=orthogonalEdgeStyle;rounded=0;orthogonalLoop=1;jettySize=auto;html=1;exitX=0;exitY=0.5;exitDx=0;exitDy=0;entryX=1;entryY=0.5;entryDx=0;entryDy=0;" parent="1" source="IFDbjYEKfMzznov-QCEN-4" target="U2U8d9sQ9sILnOG547oe-13" edge="1">
          <mxGeometry relative="1" as="geometry" />
        </mxCell>
        <mxCell id="U2U8d9sQ9sILnOG547oe-23" style="edgeStyle=orthogonalEdgeStyle;rounded=0;orthogonalLoop=1;jettySize=auto;html=1;exitX=0;exitY=0.5;exitDx=0;exitDy=0;entryX=1;entryY=0.5;entryDx=0;entryDy=0;" parent="1" source="IFDbjYEKfMzznov-QCEN-4" target="U2U8d9sQ9sILnOG547oe-14" edge="1">
          <mxGeometry relative="1" as="geometry" />
        </mxCell>
        <mxCell id="U2U8d9sQ9sILnOG547oe-24" style="edgeStyle=orthogonalEdgeStyle;rounded=0;orthogonalLoop=1;jettySize=auto;html=1;exitX=0;exitY=0.5;exitDx=0;exitDy=0;entryX=1;entryY=0.5;entryDx=0;entryDy=0;" parent="1" source="IFDbjYEKfMzznov-QCEN-4" target="U2U8d9sQ9sILnOG547oe-2" edge="1">
          <mxGeometry relative="1" as="geometry" />
        </mxCell>
        <mxCell id="IFDbjYEKfMzznov-QCEN-4" value="（2）管理端" style="rounded=1;whiteSpace=wrap;html=1;fontSize=14;fillColor=#d5e8d4;strokeColor=#82b366;" parent="1" vertex="1">
          <mxGeometry x="120" y="270" width="120" height="50" as="geometry" />
        </mxCell>
        <mxCell id="U2U8d9sQ9sILnOG547oe-26" style="edgeStyle=orthogonalEdgeStyle;rounded=0;orthogonalLoop=1;jettySize=auto;html=1;exitX=0;exitY=0.5;exitDx=0;exitDy=0;entryX=1;entryY=0.5;entryDx=0;entryDy=0;" parent="1" source="IFDbjYEKfMzznov-QCEN-5" target="U2U8d9sQ9sILnOG547oe-25" edge="1">
          <mxGeometry relative="1" as="geometry" />
        </mxCell>
        <mxCell id="IFDbjYEKfMzznov-QCEN-5" value="（3）大屏端" style="rounded=1;whiteSpace=wrap;html=1;fontSize=14;fillColor=#d80073;strokeColor=#A50040;fontColor=#ffffff;" parent="1" vertex="1">
          <mxGeometry x="120" y="451.25" width="120" height="47.5" as="geometry" />
        </mxCell>
        <mxCell id="U2U8d9sQ9sILnOG547oe-1" value="用户管理" style="rounded=1;whiteSpace=wrap;html=1;fontSize=14;fillColor=#e1d5e7;strokeColor=#9673a6;" parent="1" vertex="1">
          <mxGeometry x="-200" y="240" width="120" height="30" as="geometry" />
        </mxCell>
        <mxCell id="U2U8d9sQ9sILnOG547oe-2" value="登录与注册" style="rounded=1;whiteSpace=wrap;html=1;fontSize=14;fillColor=#fff2cc;strokeColor=#d6b656;" parent="1" vertex="1">
          <mxGeometry x="-40" y="180" width="120" height="30" as="geometry" />
        </mxCell>
        <mxCell id="U2U8d9sQ9sILnOG547oe-3" value="系统权限" style="rounded=1;whiteSpace=wrap;html=1;fontSize=14;fillColor=#e1d5e7;strokeColor=#9673a6;" parent="1" vertex="1">
          <mxGeometry x="-200" y="160" width="120" height="30" as="geometry" />
        </mxCell>
        <mxCell id="U2U8d9sQ9sILnOG547oe-4" value="歌曲管理" style="rounded=1;whiteSpace=wrap;html=1;fontSize=14;fillColor=#f8cecc;strokeColor=#b85450;" parent="1" vertex="1">
          <mxGeometry x="-200" y="325" width="120" height="30" as="geometry" />
        </mxCell>
        <mxCell id="U2U8d9sQ9sILnOG547oe-5" value="专辑管理" style="rounded=1;whiteSpace=wrap;html=1;fontSize=14;fillColor=#f8cecc;strokeColor=#b85450;" parent="1" vertex="1">
          <mxGeometry x="-200" y="365" width="120" height="30" as="geometry" />
        </mxCell>
        <mxCell id="U2U8d9sQ9sILnOG547oe-6" value="艺术家管理" style="rounded=1;whiteSpace=wrap;html=1;fontSize=14;fillColor=#f8cecc;strokeColor=#b85450;" parent="1" vertex="1">
          <mxGeometry x="-200" y="405" width="120" height="30" as="geometry" />
        </mxCell>
        <mxCell id="U2U8d9sQ9sILnOG547oe-7" value="订单管理" style="rounded=1;whiteSpace=wrap;html=1;fontSize=14;fillColor=#e1d5e7;strokeColor=#9673a6;" parent="1" vertex="1">
          <mxGeometry x="-200" y="280" width="120" height="30" as="geometry" />
        </mxCell>
        <mxCell id="U2U8d9sQ9sILnOG547oe-9" value="日志管理" style="rounded=1;whiteSpace=wrap;html=1;fontSize=14;fillColor=#e1d5e7;strokeColor=#9673a6;" parent="1" vertex="1">
          <mxGeometry x="-200" y="200" width="120" height="30" as="geometry" />
        </mxCell>
        <mxCell id="U2U8d9sQ9sILnOG547oe-16" style="edgeStyle=orthogonalEdgeStyle;rounded=0;orthogonalLoop=1;jettySize=auto;html=1;exitX=0;exitY=0.5;exitDx=0;exitDy=0;entryX=1;entryY=0.5;entryDx=0;entryDy=0;" parent="1" source="U2U8d9sQ9sILnOG547oe-13" target="U2U8d9sQ9sILnOG547oe-4" edge="1">
          <mxGeometry relative="1" as="geometry" />
        </mxCell>
        <mxCell id="U2U8d9sQ9sILnOG547oe-17" style="edgeStyle=orthogonalEdgeStyle;rounded=0;orthogonalLoop=1;jettySize=auto;html=1;exitX=0;exitY=0.5;exitDx=0;exitDy=0;entryX=1;entryY=0.5;entryDx=0;entryDy=0;" parent="1" source="U2U8d9sQ9sILnOG547oe-13" target="U2U8d9sQ9sILnOG547oe-5" edge="1">
          <mxGeometry relative="1" as="geometry" />
        </mxCell>
        <mxCell id="U2U8d9sQ9sILnOG547oe-18" style="edgeStyle=orthogonalEdgeStyle;rounded=0;orthogonalLoop=1;jettySize=auto;html=1;exitX=0;exitY=0.5;exitDx=0;exitDy=0;entryX=1;entryY=0.5;entryDx=0;entryDy=0;" parent="1" source="U2U8d9sQ9sILnOG547oe-13" target="U2U8d9sQ9sILnOG547oe-6" edge="1">
          <mxGeometry relative="1" as="geometry" />
        </mxCell>
        <mxCell id="U2U8d9sQ9sILnOG547oe-13" value="歌曲管理" style="rounded=1;whiteSpace=wrap;html=1;fontSize=14;fillColor=#f8cecc;strokeColor=#b85450;" parent="1" vertex="1">
          <mxGeometry x="-40" y="360" width="120" height="30" as="geometry" />
        </mxCell>
        <mxCell id="U2U8d9sQ9sILnOG547oe-19" style="edgeStyle=orthogonalEdgeStyle;rounded=0;orthogonalLoop=1;jettySize=auto;html=1;exitX=0;exitY=0.5;exitDx=0;exitDy=0;entryX=1;entryY=0.5;entryDx=0;entryDy=0;" parent="1" source="U2U8d9sQ9sILnOG547oe-14" target="U2U8d9sQ9sILnOG547oe-9" edge="1">
          <mxGeometry relative="1" as="geometry" />
        </mxCell>
        <mxCell id="U2U8d9sQ9sILnOG547oe-20" style="edgeStyle=orthogonalEdgeStyle;rounded=0;orthogonalLoop=1;jettySize=auto;html=1;exitX=0;exitY=0.5;exitDx=0;exitDy=0;entryX=1;entryY=0.5;entryDx=0;entryDy=0;" parent="1" source="U2U8d9sQ9sILnOG547oe-14" target="U2U8d9sQ9sILnOG547oe-1" edge="1">
          <mxGeometry relative="1" as="geometry" />
        </mxCell>
        <mxCell id="U2U8d9sQ9sILnOG547oe-21" style="edgeStyle=orthogonalEdgeStyle;rounded=0;orthogonalLoop=1;jettySize=auto;html=1;exitX=0;exitY=0.5;exitDx=0;exitDy=0;entryX=1;entryY=0.5;entryDx=0;entryDy=0;" parent="1" source="U2U8d9sQ9sILnOG547oe-14" target="U2U8d9sQ9sILnOG547oe-7" edge="1">
          <mxGeometry relative="1" as="geometry" />
        </mxCell>
        <mxCell id="U2U8d9sQ9sILnOG547oe-22" style="edgeStyle=orthogonalEdgeStyle;rounded=0;orthogonalLoop=1;jettySize=auto;html=1;exitX=0;exitY=0.5;exitDx=0;exitDy=0;entryX=1;entryY=0.5;entryDx=0;entryDy=0;" parent="1" source="U2U8d9sQ9sILnOG547oe-14" target="U2U8d9sQ9sILnOG547oe-3" edge="1">
          <mxGeometry relative="1" as="geometry" />
        </mxCell>
        <mxCell id="U2U8d9sQ9sILnOG547oe-14" value="系统管理" style="rounded=1;whiteSpace=wrap;html=1;fontSize=14;fillColor=#e1d5e7;strokeColor=#9673a6;" parent="1" vertex="1">
          <mxGeometry x="-40" y="260" width="120" height="30" as="geometry" />
        </mxCell>
        <mxCell id="U2U8d9sQ9sILnOG547oe-25" value="涵盖音乐专辑评论、分享、歌手、编曲、作词、歌手产量、本系统平台的充值、包年包月、订单等多种角度的分析" style="rounded=1;whiteSpace=wrap;html=1;fontSize=14;fillColor=#d80073;strokeColor=#A50040;fontColor=#ffffff;" parent="1" vertex="1">
          <mxGeometry x="-190" y="480" width="240" height="90" as="geometry" />
        </mxCell>
        <mxCell id="U2U8d9sQ9sILnOG547oe-27" value="通过网易云Nodejs 接口来获取歌曲、艺术家、歌词、评论、专辑等数据" style="rounded=1;whiteSpace=wrap;html=1;fontSize=14;fillColor=#f5f5f5;strokeColor=#666666;fontColor=#333333;" parent="1" vertex="1">
          <mxGeometry x="610" y="520" width="240" height="70" as="geometry" />
        </mxCell>
        <mxCell id="U2U8d9sQ9sILnOG547oe-29" value="&amp;nbsp; &amp;nbsp; &amp;nbsp;支付业务设计" style="text;html=1;strokeColor=#6c8ebf;fillColor=#dae8fc;align=center;verticalAlign=middle;whiteSpace=wrap;rounded=0;fontSize=27;" parent="1" vertex="1">
          <mxGeometry x="-780" y="780" width="680" height="60" as="geometry" />
        </mxCell>
        <mxCell id="U2U8d9sQ9sILnOG547oe-45" style="edgeStyle=orthogonalEdgeStyle;rounded=0;orthogonalLoop=1;jettySize=auto;html=1;exitX=1;exitY=0.5;exitDx=0;exitDy=0;entryX=0;entryY=0.5;entryDx=0;entryDy=0;fontSize=14;" parent="1" source="U2U8d9sQ9sILnOG547oe-30" target="U2U8d9sQ9sILnOG547oe-33" edge="1">
          <mxGeometry relative="1" as="geometry" />
        </mxCell>
        <mxCell id="U2U8d9sQ9sILnOG547oe-30" value="充值（输入金额）" style="rounded=1;whiteSpace=wrap;html=1;fontStyle=1;fontSize=14;fillColor=#ffe6cc;strokeColor=#d79b00;" parent="1" vertex="1">
          <mxGeometry x="-780" y="1059.5" width="120" height="60" as="geometry" />
        </mxCell>
        <mxCell id="U2U8d9sQ9sILnOG547oe-46" style="edgeStyle=orthogonalEdgeStyle;rounded=0;orthogonalLoop=1;jettySize=auto;html=1;exitX=1;exitY=0.5;exitDx=0;exitDy=0;fontSize=14;" parent="1" source="U2U8d9sQ9sILnOG547oe-31" edge="1">
          <mxGeometry relative="1" as="geometry">
            <mxPoint x="-600" y="1170" as="targetPoint" />
          </mxGeometry>
        </mxCell>
        <mxCell id="U2U8d9sQ9sILnOG547oe-31" value="包年会员" style="rounded=1;whiteSpace=wrap;html=1;fontStyle=1;fontSize=14;fillColor=#ffe6cc;strokeColor=#d79b00;" parent="1" vertex="1">
          <mxGeometry x="-780" y="1140" width="120" height="60" as="geometry" />
        </mxCell>
        <mxCell id="U2U8d9sQ9sILnOG547oe-44" style="edgeStyle=orthogonalEdgeStyle;rounded=0;orthogonalLoop=1;jettySize=auto;html=1;exitX=1;exitY=0.5;exitDx=0;exitDy=0;entryX=0;entryY=0.5;entryDx=0;entryDy=0;fontSize=14;" parent="1" source="U2U8d9sQ9sILnOG547oe-32" target="U2U8d9sQ9sILnOG547oe-33" edge="1">
          <mxGeometry relative="1" as="geometry" />
        </mxCell>
        <mxCell id="U2U8d9sQ9sILnOG547oe-32" value="包月会员" style="rounded=1;whiteSpace=wrap;html=1;fontStyle=1;fontSize=14;fillColor=#ffe6cc;strokeColor=#d79b00;" parent="1" vertex="1">
          <mxGeometry x="-780" y="1220" width="120" height="60" as="geometry" />
        </mxCell>
        <mxCell id="U2U8d9sQ9sILnOG547oe-47" style="edgeStyle=orthogonalEdgeStyle;rounded=0;orthogonalLoop=1;jettySize=auto;html=1;exitX=0.5;exitY=0;exitDx=0;exitDy=0;entryX=0.5;entryY=1;entryDx=0;entryDy=0;fontSize=14;" parent="1" source="U2U8d9sQ9sILnOG547oe-33" target="U2U8d9sQ9sILnOG547oe-34" edge="1">
          <mxGeometry relative="1" as="geometry" />
        </mxCell>
        <mxCell id="U2U8d9sQ9sILnOG547oe-33" value="点击支付，&lt;br&gt;产生订单" style="rounded=1;whiteSpace=wrap;html=1;fontStyle=1;fontSize=14;fillColor=#ffe6cc;strokeColor=#d79b00;" parent="1" vertex="1">
          <mxGeometry x="-600" y="1140" width="120" height="60" as="geometry" />
        </mxCell>
        <mxCell id="U2U8d9sQ9sILnOG547oe-48" style="edgeStyle=orthogonalEdgeStyle;rounded=0;orthogonalLoop=1;jettySize=auto;html=1;exitX=1;exitY=0.5;exitDx=0;exitDy=0;entryX=0;entryY=0.5;entryDx=0;entryDy=0;fontSize=14;" parent="1" source="U2U8d9sQ9sILnOG547oe-34" target="U2U8d9sQ9sILnOG547oe-35" edge="1">
          <mxGeometry relative="1" as="geometry" />
        </mxCell>
        <mxCell id="U2U8d9sQ9sILnOG547oe-34" value="支付宝沙箱登录" style="rounded=1;whiteSpace=wrap;html=1;fontStyle=1;fontSize=14;fillColor=#dae8fc;strokeColor=#6c8ebf;" parent="1" vertex="1">
          <mxGeometry x="-600" y="950" width="120" height="60" as="geometry" />
        </mxCell>
        <mxCell id="U2U8d9sQ9sILnOG547oe-49" style="edgeStyle=orthogonalEdgeStyle;rounded=0;orthogonalLoop=1;jettySize=auto;html=1;exitX=0.5;exitY=1;exitDx=0;exitDy=0;fontSize=14;entryX=0.5;entryY=0;entryDx=0;entryDy=0;" parent="1" source="U2U8d9sQ9sILnOG547oe-35" target="Yt5vqHqGk30RE-sgk8aL-1" edge="1">
          <mxGeometry relative="1" as="geometry">
            <mxPoint x="-300" y="1070" as="targetPoint" />
          </mxGeometry>
        </mxCell>
        <mxCell id="U2U8d9sQ9sILnOG547oe-35" value="输入支付密码&lt;br&gt;完成支付" style="rounded=1;whiteSpace=wrap;html=1;fontStyle=1;fontSize=14;fillColor=#dae8fc;strokeColor=#6c8ebf;" parent="1" vertex="1">
          <mxGeometry x="-440" y="950" width="120" height="60" as="geometry" />
        </mxCell>
        <mxCell id="U2U8d9sQ9sILnOG547oe-50" style="edgeStyle=orthogonalEdgeStyle;rounded=0;orthogonalLoop=1;jettySize=auto;html=1;exitX=1;exitY=0.5;exitDx=0;exitDy=0;entryX=0;entryY=0.5;entryDx=0;entryDy=0;fontSize=14;" parent="1" source="U2U8d9sQ9sILnOG547oe-36" target="U2U8d9sQ9sILnOG547oe-37" edge="1">
          <mxGeometry relative="1" as="geometry" />
        </mxCell>
        <mxCell id="U2U8d9sQ9sILnOG547oe-36" value="回调接口" style="rounded=1;whiteSpace=wrap;html=1;fontStyle=1;fontSize=14;fillColor=#ffe6cc;strokeColor=#d79b00;" parent="1" vertex="1">
          <mxGeometry x="-440" y="1140" width="120" height="60" as="geometry" />
        </mxCell>
        <mxCell id="U2U8d9sQ9sILnOG547oe-51" style="edgeStyle=orthogonalEdgeStyle;rounded=0;orthogonalLoop=1;jettySize=auto;html=1;exitX=1;exitY=0.5;exitDx=0;exitDy=0;entryX=0;entryY=0.5;entryDx=0;entryDy=0;fontSize=14;" parent="1" source="U2U8d9sQ9sILnOG547oe-37" target="U2U8d9sQ9sILnOG547oe-38" edge="1">
          <mxGeometry relative="1" as="geometry" />
        </mxCell>
        <mxCell id="U2U8d9sQ9sILnOG547oe-37" value="更新订单状态" style="rounded=1;whiteSpace=wrap;html=1;fontStyle=1;fontSize=14;fillColor=#ffe6cc;strokeColor=#d79b00;" parent="1" vertex="1">
          <mxGeometry x="-290" y="1140" width="120" height="60" as="geometry" />
        </mxCell>
        <mxCell id="U2U8d9sQ9sILnOG547oe-52" style="edgeStyle=orthogonalEdgeStyle;rounded=0;orthogonalLoop=1;jettySize=auto;html=1;exitX=0.5;exitY=1;exitDx=0;exitDy=0;fontSize=14;" parent="1" source="U2U8d9sQ9sILnOG547oe-38" target="U2U8d9sQ9sILnOG547oe-40" edge="1">
          <mxGeometry relative="1" as="geometry" />
        </mxCell>
        <mxCell id="U2U8d9sQ9sILnOG547oe-38" value="更新系统状态" style="rounded=1;whiteSpace=wrap;html=1;fontStyle=1;fontSize=14;fillColor=#ffe6cc;strokeColor=#d79b00;" parent="1" vertex="1">
          <mxGeometry x="-150" y="1140" width="120" height="60" as="geometry" />
        </mxCell>
        <mxCell id="U2U8d9sQ9sILnOG547oe-41" style="edgeStyle=orthogonalEdgeStyle;rounded=0;orthogonalLoop=1;jettySize=auto;html=1;exitX=1;exitY=0.5;exitDx=0;exitDy=0;entryX=0;entryY=0.5;entryDx=0;entryDy=0;fontSize=14;" parent="1" source="U2U8d9sQ9sILnOG547oe-39" target="U2U8d9sQ9sILnOG547oe-31" edge="1">
          <mxGeometry relative="1" as="geometry" />
        </mxCell>
        <mxCell id="U2U8d9sQ9sILnOG547oe-42" style="edgeStyle=orthogonalEdgeStyle;rounded=0;orthogonalLoop=1;jettySize=auto;html=1;exitX=1;exitY=0.5;exitDx=0;exitDy=0;entryX=0;entryY=0.5;entryDx=0;entryDy=0;fontSize=14;" parent="1" source="U2U8d9sQ9sILnOG547oe-39" target="U2U8d9sQ9sILnOG547oe-30" edge="1">
          <mxGeometry relative="1" as="geometry" />
        </mxCell>
        <mxCell id="U2U8d9sQ9sILnOG547oe-43" style="edgeStyle=orthogonalEdgeStyle;rounded=0;orthogonalLoop=1;jettySize=auto;html=1;exitX=1;exitY=0.5;exitDx=0;exitDy=0;entryX=0;entryY=0.5;entryDx=0;entryDy=0;fontSize=14;" parent="1" source="U2U8d9sQ9sILnOG547oe-39" target="U2U8d9sQ9sILnOG547oe-32" edge="1">
          <mxGeometry relative="1" as="geometry" />
        </mxCell>
        <mxCell id="U2U8d9sQ9sILnOG547oe-39" value="开始" style="ellipse;whiteSpace=wrap;html=1;aspect=fixed;fontSize=14;fillColor=#d5e8d4;strokeColor=#82b366;" parent="1" vertex="1">
          <mxGeometry x="-907" y="1130" width="80" height="80" as="geometry" />
        </mxCell>
        <mxCell id="U2U8d9sQ9sILnOG547oe-40" value="结束" style="ellipse;whiteSpace=wrap;html=1;aspect=fixed;fontSize=14;fillColor=#f8cecc;strokeColor=#b85450;" parent="1" vertex="1">
          <mxGeometry x="-130" y="1260" width="80" height="80" as="geometry" />
        </mxCell>
        <mxCell id="Yt5vqHqGk30RE-sgk8aL-2" style="edgeStyle=orthogonalEdgeStyle;rounded=0;orthogonalLoop=1;jettySize=auto;html=1;exitX=0.5;exitY=1;exitDx=0;exitDy=0;entryX=0.5;entryY=0;entryDx=0;entryDy=0;" parent="1" source="Yt5vqHqGk30RE-sgk8aL-1" target="U2U8d9sQ9sILnOG547oe-36" edge="1">
          <mxGeometry relative="1" as="geometry" />
        </mxCell>
        <mxCell id="Yt5vqHqGk30RE-sgk8aL-1" value="NATAPP" style="rounded=1;whiteSpace=wrap;html=1;fillColor=#ffe6cc;strokeColor=#d79b00;" parent="1" vertex="1">
          <mxGeometry x="-440" y="1059.5" width="120" height="40" as="geometry" />
        </mxCell>
        <mxCell id="gPv5ncx47-_g18ovrtpT-1" value="知识图谱" style="rounded=1;whiteSpace=wrap;html=1;fontSize=14;fillColor=#d5e8d4;strokeColor=#82b366;" vertex="1" parent="1">
          <mxGeometry x="620" y="435" width="120" height="30" as="geometry" />
        </mxCell>
      </root>
    </mxGraphModel>
  </diagram>
</mxfile>
